<svg id="eHYZUpGuIb71" xmlns="http://www.w3.org/2000/svg" xmlns:xlink="http://www.w3.org/1999/xlink" viewBox="0 0 872.17 612.26" shape-rendering="geometricPrecision" text-rendering="geometricPrecision"><defs><linearGradient id="eHYZUpGuIb721-fill" x1="648.567797" y1="228.28188" x2="655.358691" y2="91.870829" spreadMethod="pad" gradientUnits="userSpaceOnUse" gradientTransform="translate(0 0)"><stop id="eHYZUpGuIb721-fill-0" offset="0%" stop-color="#346751"/><stop id="eHYZUpGuIb721-fill-1" offset="3%" stop-color="#3b6c57"/><stop id="eHYZUpGuIb721-fill-2" offset="21%" stop-color="#729486"/><stop id="eHYZUpGuIb721-fill-3" offset="40%" stop-color="#9fb6ac"/><stop id="eHYZUpGuIb721-fill-4" offset="57%" stop-color="#c3d0ca"/><stop id="eHYZUpGuIb721-fill-5" offset="73%" stop-color="#dce2e0"/><stop id="eHYZUpGuIb721-fill-6" offset="88%" stop-color="#ebeeed"/><stop id="eHYZUpGuIb721-fill-7" offset="100%" stop-color="#f1f2f2"/></linearGradient><linearGradient id="eHYZUpGuIb728-fill" x1="265.2" y1="363.92" x2="525.88" y2="363.92" spreadMethod="pad" gradientUnits="userSpaceOnUse" gradientTransform="translate(0 0)"><stop id="eHYZUpGuIb728-fill-0" offset="0%" stop-color="#346751"/><stop id="eHYZUpGuIb728-fill-1" offset="3%" stop-color="#3b6c57"/><stop id="eHYZUpGuIb728-fill-2" offset="21%" stop-color="#729486"/><stop id="eHYZUpGuIb728-fill-3" offset="40%" stop-color="#9fb6ac"/><stop id="eHYZUpGuIb728-fill-4" offset="57%" stop-color="#c3d0ca"/><stop id="eHYZUpGuIb728-fill-5" offset="73%" stop-color="#dce2e0"/><stop id="eHYZUpGuIb728-fill-6" offset="88%" stop-color="#ebeeed"/><stop id="eHYZUpGuIb728-fill-7" offset="100%" stop-color="#f1f2f2"/></linearGradient></defs><path id="eHYZUpGuIb72" d="M380.74,456.32c0,0,333.56,60.91,348.61,64.3c15.06,3.4,22.47,5.26,22.47,9.84c0,6.28-10.09,6.74-22.47,9.71s-294.28,70.62-294.28,70.62c-12.59,2.02-32.98,1.96-45.55-.14c0,0-384.1-74.93-389.46-84.28-5.36-9.36,380.69-70.04,380.69-70.04Z" transform="matrix(.599702 0 0 0.599702 217.35707 202.926258)" fill="#ca523a"/><g id="eHYZUpGuIb73" transform="matrix(.718579 0 0 0.718579 121.965416 184.341196)"><path d="M854.45,0c11.86,0,19.61,9.54,17.32,21.3L796.16,409.84c-2.29,11.76-13.67,20.04-25.43,18.49L854.45,0Z" fill="#b2b2b2"/><path d="M397.79,21.17C400.39,9.48,412.12,0,423.97,0h426.18c11.86,0,19.61,9.54,17.32,21.3L791.86,409.84c-2.29,11.76-13.67,20.04-25.43,18.49L341.49,372.29c-11.76-1.55-19.17-12.29-16.57-23.98L397.79,21.17Z"/><path d="M776.99,426.51c0,0,0,12.35-16.43,17.45-6.42,2.21-25.71,6.1-37.42,7.91L473.89,498.46c-11.72,1.81-30.7,1.68-42.39-.29L36.06,429.13c0,0-19.19-2.95-19.19-6.99v-10.96L323.9,377.75L776.99,426.5Z" fill="#346751"/><path d="M323.9,377.76l265.53,35.57l187.56,1.25v11.94c0,6.59-9.49,13.46-21.2,15.34L476.73,493.12c-11.71,1.88-30.68,1.82-42.38-.13L25.34,423.75c-4.68-.79-8.47-2.89-8.47-4.69v-9.73l45.44.49l261.6-32.06Z" fill="#b2b2b2"/><path d="M20.37,407.98l295.08-52.59c4.67-.83,12.27-1,16.97-.37l441.02,58.01c4.7.63,4.75,1.95.11,2.94L476.53,479.02c-11.6,2.49-30.48,2.92-42.18.97L20.38,410.9c-4.68-.78-4.69-2.09-.02-2.92Z" transform="translate(-.690495 0)" fill="#fff"/><path d="M187.64,386.79L314.49,366.9c6.57-1.22,17.26-1.48,23.88-.59l341.89,46.06c6.62.89,6.68,2.7.14,4.05L531.85,444.48c-6.54,1.34-17.19,1.54-23.78.43L187.68,390.99c-6.59-1.1-6.6-2.99-.03-4.2Z"/><g><path d="M363.25,360.22l3.16-.73l43.05,5.66-5.11.83c-2.34.38-6.14.43-8.49.12l-32.49-4.36c-2.35-.32-2.4-1-.12-1.52Z" fill="#c6c6c6"/><path d="M634.85,396.4l6.25-.77l51.35,6.75-6.71.84c-2.35.29-6.17.28-8.52-.04l-42.38-5.69c-2.35-.32-2.35-.81,0-1.1Z" fill="#c6c6c6"/></g><polygon points="835.67,34.6 769.11,388.23 349.63,329.79 414.47,34.6 835.67,34.6" fill="#c84b31"/><path d="M177.42,422.56l48.96-9.91c9.85-1.99,25.86-2.19,35.75-.44l99.18,17.52c9.89,1.75,9.88,4.5-.03,6.14l-55.11,9.14c-9.91,1.64-25.98,1.61-35.88-.07l-92.76-15.73c-9.91-1.68-9.95-4.66-.1-6.65Z" fill="#dadada"/><g clip-path="url(#eHYZUpGuIb718)"><g><path d="M176.96,385.13l20.49,3.46-13.35,2.07.86.15l13.35-2.07l24.66,4.16-13.48,2.14.89.15l13.49-2.14l25.52,4.3-13.61,2.22.92.16l27.95-4.57l21.74,3.58-28.16,4.7.95.16l28.17-4.71l22.37,3.68-28.38,4.85.98.17l28.39-4.85L437.39,423.6l-29.41,5.68l1.14.2l29.41-5.69l26.83,4.42-29.59,5.87l1.18.2l29.6-5.88l27.71,4.56-29.77,6.07l1.22.21l29.78-6.08l28.62,4.71-29.95,6.28l1.26.22l29.95-6.29l29.97,4.93l1.33-.29-61.71-10.14l28.98-5.91l62,9.73l1.33-.29-50.88-7.97l28.99-5.97l51.09,7.63l1.33-.29-35.34-5.27l28.99-6.06l35.46,5.04l1.32-.29-25.85-3.67l28.96-6.1l27.16,3.62l1.32-.28-27.09-3.6l17.74-3.74-1.44-.19-17.74,3.73-24.6-3.32l17.69-3.64-1.4-.18-17.69,3.64-23.97-3.23l17.64-3.55-1.37-.18-17.64,3.54-23.36-3.15l17.59-3.46-1.33-.17-17.58,3.45-22.78-3.07l17.52-3.37-1.3-.17-17.52,3.36-22.22-3l17.46-3.28-1.27-.17-17.45,3.28-21.68-2.92l17.39-3.2-1.24-.16-17.39,3.2-21.15-2.85l17.32-3.12-1.21-.16-17.31,3.12-20.65-2.79l17.24-3.04-1.18-.15L460.61,387l-20.16-2.72l17.16-2.97-1.15-.15-17.16,2.97-19.7-2.66l17.08-2.9-1.13-.15-17.08,2.89-19.24-2.6l17-2.83-1.1-.14-16.99,2.82-18.8-2.54l16.91-2.76-1.08-.14-16.91,2.76-18.38-2.48l16.82-2.69-1.05-.14-16.82,2.69-17.97-2.42l16.73-2.63-1.03-.13-16.73,2.63-17.58-2.37l16.64-2.57-1.01-.13-16.64,2.56-17.33-2.34-1.22.19l33.75,4.56-27.18,4.26-33.46-4.75-1.22.18l26.65,3.79-27.03,4.21-26.4-3.94-1.22.18l36.75,5.49-27.04,4.25-36.4-5.7-1.21.18l49.96,7.84-27.09,4.32-49.46-8.13-1.21.18l20.61,3.39-12.84,1.99-20.5-3.45-1.2.18Zm92.6,1.66l21.3,3.34-27.3,4.45-21.1-3.47l27.1-4.32Zm77.15-6.2l22.22,3.16-27.59,4.59-22.04-3.29l27.42-4.46Zm-28.36,4.32l-21.45-3.2l27.23-4.33l21.63,3.07-27.41,4.46Zm51.56-1.02l22.84,3.25-27.77,4.73-22.67-3.38l27.6-4.59Zm23.85,3.39l23.48,3.34-27.95,4.87-23.32-3.48l27.78-4.73Zm24.52,3.49l24.16,3.43-28.12,5.02-23.99-3.58l27.96-4.88Zm25.22,3.59l24.86,3.53-28.28,5.17-24.7-3.68l28.13-5.03Zm25.96,3.69l25.59,3.64-28.44,5.33-25.44-3.79l28.29-5.18Zm26.72,3.8l26.36,3.75-28.59,5.5-26.22-3.91l28.45-5.34Zm27.52,3.91l27.16,3.86-28.73,5.68-27.03-4.03l28.6-5.51Zm28.36,4.03l28,3.98-28.87,5.86-27.87-4.15l28.74-5.68Zm-17.43,7.83l-28.84,5.77-27.28-4.27l28.69-5.6l27.42,4.1Zm-57.28,1.32l-26.44-4.14l28.53-5.42l26.59,3.97-28.69,5.59Zm-27.57-4.32l-25.64-4.01l28.36-5.26l25.8,3.85-28.53,5.42Zm-26.74-4.19l-24.88-3.89l28.19-5.1l25.05,3.74-28.36,5.25Zm-25.95-4.06l-24.15-3.78l28.01-4.94l24.32,3.63-28.18,5.09Zm-25.18-3.94l-23.45-3.67l27.83-4.79l23.63,3.53-28,4.94Zm-24.46-3.83l-22.79-3.57l27.64-4.65l22.97,3.43-27.82,4.79Zm-23.76-3.72l-22.15-3.47l27.44-4.51l22.33,3.34-27.63,4.65Zm-23.1-3.62l-21.53-3.37l27.25-4.38l21.72,3.24-27.44,4.51Zm-16.35-11.05l21.14,3.16-27.24,4.38-20.94-3.28l27.05-4.26Zm38.96-2.96l-27.22,4.33-20.87-3.11l27.04-4.21l21.06,2.99Zm35.58-3.59l-27.36,4.38-21.24-3.01l27.18-4.26l21.41,2.89Zm22.93,3.1l-27.53,4.51-21.82-3.09l27.36-4.39l21.99,2.97Zm23.55,3.18l-27.7,4.64-22.42-3.18l27.54-4.51l22.58,3.05Zm24.2,3.27l-27.87,4.78-23.05-3.27l27.71-4.65l23.21,3.14Zm24.88,3.36l-28.03,4.92-23.7-3.36l27.88-4.78l23.85,3.22Zm25.58,3.46l-28.19,5.07-24.38-3.46l28.04-4.93l24.53,3.32Zm26.32,3.56l-28.34,5.22-25.09-3.56l28.2-5.08l25.24,3.41Zm27.09,3.66l-28.48,5.38-25.84-3.66l28.35-5.23l25.97,3.51Zm27.89,3.77l-28.62,5.55-26.61-3.78l28.49-5.39l26.74,3.61Zm28.73,3.88l-28.74,5.73-27.43-3.89l28.62-5.56l27.55,3.72Zm29.6,4l-28.86,5.91-28.28-4.01l28.75-5.73l28.39,3.84Zm-27.61,6.08l28.86-5.91l29.27,3.96-28.96,6.1-29.17-4.14Zm-39.51,4.81l28.87-5.87l28.88,4.11-28.99,6.05-28.76-4.29ZM507,423.55l28.84-5.78L564.13,422l-28.98,5.96L507,423.55Zm-40.92,4.29l28.82-5.72l27.81,4.36-28.97,5.9-27.66-4.55Zm-27.97-4.6l28.65-5.53l26.95,4.23-28.81,5.71-26.79-4.4ZM411,418.79l28.48-5.36l26.13,4.1-28.64,5.53-25.96-4.27Zm-26.28-4.32l28.29-5.19l25.34,3.98-28.47,5.35-25.17-4.14Zm-25.49-4.19l28.1-5.03l24.59,3.86-28.28,5.19-24.41-4.01Zm-24.74-4.06l27.91-4.88l23.88,3.75-28.1,5.03-23.69-3.89Zm-24.02-3.95l27.71-4.73l23.19,3.64-27.9,4.87-23-3.78Zm-23.33-3.83l27.51-4.59l22.53,3.53-27.7,4.73-22.34-3.67Zm-22.67-3.72l27.31-4.45l21.9,3.44-27.5,4.58-21.71-3.57Zm-39.39-1.88l12.97-2.06L263.7,395l-13.09,2.14-25.53-4.3Zm-25.57-4.31l12.84-1.99l24.8,4.08-12.96,2.06-24.68-4.15Z" fill="#fff"/></g><clipPath id="eHYZUpGuIb718"><path d="M680.25,412.37L338.36,366.31c-6.62-.89-17.31-.63-23.88.59L187.63,386.79c-6.57,1.22-6.55,3.1.03,4.2l320.39,53.92c6.59,1.1,17.23.91,23.78-.43l148.55-28.06c6.54-1.34,6.48-3.16-.14-4.05Z" fill="none"/></clipPath></g><polygon points="600.44,53.55 456.23,137.86 421.97,297.31 696.34,327.07 729.69,149.5 600.44,53.55" fill="#ffa300"/><path id="eHYZUpGuIb721" d="M608.92,131.54c3.09-22.83,26.59-40.48,52.95-39.39c26.88,1.11,46.43,21.21,43.18,44.85l-12.81,93.42-95.52-8.67l12.2-90.21Z" fill="url(#eHYZUpGuIb721-fill)" stroke="#181107" stroke-miterlimit="10"/><polygon points="729.69,149.5 696.34,327.07 421.97,297.31 456.23,137.86 554.38,232.46 729.69,149.5" fill="#ffa300"/><polygon points="421.97,297.31 456.23,137.86 532.54,211.42 421.97,297.31" fill="#ffb600"/><polygon points="729.69,149.5 696.34,327.07 592.65,214.25 729.69,149.5" fill="#ffb600"/><g id="eHYZUpGuIb725"><g><path d="M339.9,330.94l13.35-102.39l12.97-99.49c3.52-26.97,28.99-47.92,57.47-46.75l236.62,9.78v.03c-25.72-.34-48.36,17.04-51.39,39.42l-1.8,13.29v0l-9.35,69.16-1.05,7.76v0l-4.24,31.36-14.71,108.77c-.16,1.22-.39,2.41-.64,3.6l.15.02-1.16,8.59c-3.05,22.58-25.74,37.55-50.25,33.52l-13.05-2.15c0,0,0,0,0,0L298.05,370.12v0l41.84-39.16Z" fill="#ecdbba" stroke="#181107" stroke-miterlimit="10"/><path d="M265.51,327.84l.98-7.59l73.41,10.68v0l149.13,21.7-1.11,8.31c-2.91,21.84,13.9,42.69,37.96,46.65L298.06,370.1v-.03c-.39-.05-.79-.1-1.19-.17-20.03-3.3-33.94-22.1-31.36-42.06Z" fill="url(#eHYZUpGuIb728-fill)" stroke="#181107" stroke-miterlimit="10"/></g><polygon points="448.98,126.91 524.17,131.32 521.92,148.22 446.81,143.33 448.98,126.91" fill="#346751"/><polygon points="404.63,167.85 560.34,179.69 559.19,188.27 403.57,175.92 404.63,167.85" fill="#c84b31"/><polygon points="400.96,195.81 556.35,209.41 555.2,217.97 399.9,203.88 400.96,195.81" fill="#c84b31"/><g><polygon points="393.8,261.61 460.42,268.92 459.27,277.46 392.71,269.85 393.8,261.61" fill="#c84b31"/><polygon points="390.87,281.19 442.14,287.41 441,295.94 389.78,289.47 390.87,281.19" fill="#c84b31"/></g><polygon points="397.29,223.75 552.36,239.08 551.21,247.64 396.24,231.8 397.29,223.75" fill="#c84b31"/></g></g>
<script><![CDATA[
!function(t,n){"object"==typeof exports&&"undefined"!=typeof module?module.exports=n():"function"==typeof __SVGATOR_DEFINE__&&__SVGATOR_DEFINE__.amd?__SVGATOR_DEFINE__(n):((t="undefined"!=typeof globalThis?globalThis:t||self).__SVGATOR_PLAYER__=t.__SVGATOR_PLAYER__||{},t.__SVGATOR_PLAYER__["5c7f360c"]=n())}(this,(function(){"use strict";function t(t,n){var e=Object.keys(t);if(Object.getOwnPropertySymbols){var r=Object.getOwnPropertySymbols(t);n&&(r=r.filter((function(n){return Object.getOwnPropertyDescriptor(t,n).enumerable}))),e.push.apply(e,r)}return e}function n(n){for(var e=1;e<arguments.length;e++){var r=null!=arguments[e]?arguments[e]:{};e%2?t(Object(r),!0).forEach((function(t){o(n,t,r[t])})):Object.getOwnPropertyDescriptors?Object.defineProperties(n,Object.getOwnPropertyDescriptors(r)):t(Object(r)).forEach((function(t){Object.defineProperty(n,t,Object.getOwnPropertyDescriptor(r,t))}))}return n}function e(t){return(e="function"==typeof Symbol&&"symbol"==typeof Symbol.iterator?function(t){return typeof t}:function(t){return t&&"function"==typeof Symbol&&t.constructor===Symbol&&t!==Symbol.prototype?"symbol":typeof t})(t)}function r(t,n){if(!(t instanceof n))throw new TypeError("Cannot call a class as a function")}function i(t,n){for(var e=0;e<n.length;e++){var r=n[e];r.enumerable=r.enumerable||!1,r.configurable=!0,"value"in r&&(r.writable=!0),Object.defineProperty(t,r.key,r)}}function u(t,n,e){return n&&i(t.prototype,n),e&&i(t,e),t}function o(t,n,e){return n in t?Object.defineProperty(t,n,{value:e,enumerable:!0,configurable:!0,writable:!0}):t[n]=e,t}function a(t){return(a=Object.setPrototypeOf?Object.getPrototypeOf:function(t){return t.__proto__||Object.getPrototypeOf(t)})(t)}function l(t,n){return(l=Object.setPrototypeOf||function(t,n){return t.__proto__=n,t})(t,n)}function s(){if("undefined"==typeof Reflect||!Reflect.construct)return!1;if(Reflect.construct.sham)return!1;if("function"==typeof Proxy)return!0;try{return Boolean.prototype.valueOf.call(Reflect.construct(Boolean,[],(function(){}))),!0}catch(t){return!1}}function f(t,n,e){return(f=s()?Reflect.construct:function(t,n,e){var r=[null];r.push.apply(r,n);var i=new(Function.bind.apply(t,r));return e&&l(i,e.prototype),i}).apply(null,arguments)}function c(t,n){if(n&&("object"==typeof n||"function"==typeof n))return n;if(void 0!==n)throw new TypeError("Derived constructors may only return object or undefined");return function(t){if(void 0===t)throw new ReferenceError("this hasn't been initialised - super() hasn't been called");return t}(t)}function h(t,n,e){return(h="undefined"!=typeof Reflect&&Reflect.get?Reflect.get:function(t,n,e){var r=function(t,n){for(;!Object.prototype.hasOwnProperty.call(t,n)&&null!==(t=a(t)););return t}(t,n);if(r){var i=Object.getOwnPropertyDescriptor(r,n);return i.get?i.get.call(e):i.value}})(t,n,e||t)}function v(t){return function(t){if(Array.isArray(t))return y(t)}(t)||function(t){if("undefined"!=typeof Symbol&&null!=t[Symbol.iterator]||null!=t["@@iterator"])return Array.from(t)}(t)||function(t,n){if(!t)return;if("string"==typeof t)return y(t,n);var e=Object.prototype.toString.call(t).slice(8,-1);"Object"===e&&t.constructor&&(e=t.constructor.name);if("Map"===e||"Set"===e)return Array.from(t);if("Arguments"===e||/^(?:Ui|I)nt(?:8|16|32)(?:Clamped)?Array$/.test(e))return y(t,n)}(t)||function(){throw new TypeError("Invalid attempt to spread non-iterable instance.\nIn order to be iterable, non-array objects must have a [Symbol.iterator]() method.")}()}function y(t,n){(null==n||n>t.length)&&(n=t.length);for(var e=0,r=new Array(n);e<n;e++)r[e]=t[e];return r}Number.isInteger||(Number.isInteger=function(t){return"number"==typeof t&&isFinite(t)&&Math.floor(t)===t}),Number.EPSILON||(Number.EPSILON=2220446049250313e-31);var g=p(Math.pow(10,-6));function p(t){var n=arguments.length>1&&void 0!==arguments[1]?arguments[1]:6;if(Number.isInteger(t))return t;var e=Math.pow(10,n);return Math.round((+t+Number.EPSILON)*e)/e}function d(t,n){var e=arguments.length>2&&void 0!==arguments[2]?arguments[2]:g;return Math.abs(t-n)<e}var m=Math.PI/180;function b(t){return t}function w(t,n,e){var r=1-e;return 3*e*r*(t*r+n*e)+e*e*e}function A(){var t=arguments.length>0&&void 0!==arguments[0]?arguments[0]:0,n=arguments.length>1&&void 0!==arguments[1]?arguments[1]:0,e=arguments.length>2&&void 0!==arguments[2]?arguments[2]:1,r=arguments.length>3&&void 0!==arguments[3]?arguments[3]:1;return t<0||t>1||e<0||e>1?null:d(t,n)&&d(e,r)?b:function(i){if(i<=0)return t>0?i*n/t:0===n&&e>0?i*r/e:0;if(i>=1)return e<1?1+(i-1)*(r-1)/(e-1):1===e&&t<1?1+(i-1)*(n-1)/(t-1):1;for(var u,o=0,a=1;o<a;){var l=w(t,e,u=(o+a)/2);if(d(i,l))break;l<i?o=u:a=u}return w(n,r,u)}}function _(){return 1}function x(t){return 1===t?1:0}function k(){var t=arguments.length>0&&void 0!==arguments[0]?arguments[0]:1,n=arguments.length>1&&void 0!==arguments[1]?arguments[1]:0;if(1===t){if(0===n)return x;if(1===n)return _}var e=1/t;return function(t){return t>=1?1:(t+=n*e)-t%e}}var S=Math.sin,O=Math.cos,j=Math.acos,E=Math.asin,M=Math.tan,P=Math.atan2,I=Math.PI/180,R=180/Math.PI,F=Math.sqrt,N=function(){function t(){var n=arguments.length>0&&void 0!==arguments[0]?arguments[0]:1,e=arguments.length>1&&void 0!==arguments[1]?arguments[1]:0,i=arguments.length>2&&void 0!==arguments[2]?arguments[2]:0,u=arguments.length>3&&void 0!==arguments[3]?arguments[3]:1,o=arguments.length>4&&void 0!==arguments[4]?arguments[4]:0,a=arguments.length>5&&void 0!==arguments[5]?arguments[5]:0;r(this,t),this.m=[n,e,i,u,o,a],this.i=null,this.w=null,this.s=null}return u(t,[{key:"determinant",get:function(){var t=this.m;return t[0]*t[3]-t[1]*t[2]}},{key:"isIdentity",get:function(){if(null===this.i){var t=this.m;this.i=1===t[0]&&0===t[1]&&0===t[2]&&1===t[3]&&0===t[4]&&0===t[5]}return this.i}},{key:"point",value:function(t,n){var e=this.m;return{x:e[0]*t+e[2]*n+e[4],y:e[1]*t+e[3]*n+e[5]}}},{key:"translateSelf",value:function(){var t=arguments.length>0&&void 0!==arguments[0]?arguments[0]:0,n=arguments.length>1&&void 0!==arguments[1]?arguments[1]:0;if(!t&&!n)return this;var e=this.m;return e[4]+=e[0]*t+e[2]*n,e[5]+=e[1]*t+e[3]*n,this.w=this.s=this.i=null,this}},{key:"rotateSelf",value:function(){var t=arguments.length>0&&void 0!==arguments[0]?arguments[0]:0;if(t%=360){var n=S(t*=I),e=O(t),r=this.m,i=r[0],u=r[1];r[0]=i*e+r[2]*n,r[1]=u*e+r[3]*n,r[2]=r[2]*e-i*n,r[3]=r[3]*e-u*n,this.w=this.s=this.i=null}return this}},{key:"scaleSelf",value:function(){var t=arguments.length>0&&void 0!==arguments[0]?arguments[0]:1,n=arguments.length>1&&void 0!==arguments[1]?arguments[1]:1;if(1!==t||1!==n){var e=this.m;e[0]*=t,e[1]*=t,e[2]*=n,e[3]*=n,this.w=this.s=this.i=null}return this}},{key:"skewSelf",value:function(t,n){if(n%=360,(t%=360)||n){var e=this.m,r=e[0],i=e[1],u=e[2],o=e[3];t&&(t=M(t*I),e[2]+=r*t,e[3]+=i*t),n&&(n=M(n*I),e[0]+=u*n,e[1]+=o*n),this.w=this.s=this.i=null}return this}},{key:"resetSelf",value:function(){var t=arguments.length>0&&void 0!==arguments[0]?arguments[0]:1,n=arguments.length>1&&void 0!==arguments[1]?arguments[1]:0,e=arguments.length>2&&void 0!==arguments[2]?arguments[2]:0,r=arguments.length>3&&void 0!==arguments[3]?arguments[3]:1,i=arguments.length>4&&void 0!==arguments[4]?arguments[4]:0,u=arguments.length>5&&void 0!==arguments[5]?arguments[5]:0,o=this.m;return o[0]=t,o[1]=n,o[2]=e,o[3]=r,o[4]=i,o[5]=u,this.w=this.s=this.i=null,this}},{key:"recomposeSelf",value:function(){var t=arguments.length>0&&void 0!==arguments[0]?arguments[0]:null,n=arguments.length>1&&void 0!==arguments[1]?arguments[1]:null,e=arguments.length>2&&void 0!==arguments[2]?arguments[2]:null,r=arguments.length>3&&void 0!==arguments[3]?arguments[3]:null,i=arguments.length>4&&void 0!==arguments[4]?arguments[4]:null;return this.isIdentity||this.resetSelf(),t&&(t.x||t.y)&&this.translateSelf(t.x,t.y),n&&this.rotateSelf(n),e&&(e.x&&this.skewSelf(e.x,0),e.y&&this.skewSelf(0,e.y)),!r||1===r.x&&1===r.y||this.scaleSelf(r.x,r.y),i&&(i.x||i.y)&&this.translateSelf(i.x,i.y),this}},{key:"decompose",value:function(){var t=arguments.length>0&&void 0!==arguments[0]?arguments[0]:0,n=arguments.length>1&&void 0!==arguments[1]?arguments[1]:0,e=this.m,r=e[0]*e[0]+e[1]*e[1],i=[[e[0],e[1]],[e[2],e[3]]],u=F(r);if(0===u)return{origin:{x:p(e[4]),y:p(e[5])},translate:{x:p(t),y:p(n)},scale:{x:0,y:0},skew:{x:0,y:0},rotate:0};i[0][0]/=u,i[0][1]/=u;var o=e[0]*e[3]-e[1]*e[2]<0;o&&(u=-u);var a=i[0][0]*i[1][0]+i[0][1]*i[1][1];i[1][0]-=i[0][0]*a,i[1][1]-=i[0][1]*a;var l=F(i[1][0]*i[1][0]+i[1][1]*i[1][1]);if(0===l)return{origin:{x:p(e[4]),y:p(e[5])},translate:{x:p(t),y:p(n)},scale:{x:p(u),y:0},skew:{x:0,y:0},rotate:0};i[1][0]/=l,i[1][1]/=l,a/=l;var s=0;return i[1][1]<0?(s=j(i[1][1])*R,i[0][1]<0&&(s=360-s)):s=E(i[0][1])*R,o&&(s=-s),a=P(a,F(i[0][0]*i[0][0]+i[0][1]*i[0][1]))*R,o&&(a=-a),{origin:{x:p(e[4]),y:p(e[5])},translate:{x:p(t),y:p(n)},scale:{x:p(u),y:p(l)},skew:{x:p(a),y:0},rotate:p(s)}}},{key:"clone",value:function(){var t=this.m;return new this.constructor(t[0],t[1],t[2],t[3],t[4],t[5])}},{key:"toString",value:function(){var t=arguments.length>0&&void 0!==arguments[0]?arguments[0]:" ";if(null===this.s){var n=this.m.map((function(t){return p(t)}));1===n[0]&&0===n[1]&&0===n[2]&&1===n[3]?this.s="translate("+n[4]+t+n[5]+")":this.s="matrix("+n.join(t)+")"}return this.s}}],[{key:"create",value:function(t){return t?Array.isArray(t)?f(this,v(t)):t instanceof this?t.clone():(new this).recomposeSelf(t.origin,t.rotate,t.skew,t.scale,t.translate):new this}}]),t}();function T(t,n,e){return t>=.5?e:n}function q(t,n,e){return 0===t||n===e?n:t*(e-n)+n}function B(t,n,e){var r=q(t,n,e);return r<=0?0:r}function D(t,n,e){var r=q(t,n,e);return r<=0?0:r>=1?1:r}function L(t,n,e){return 0===t?n:1===t?e:{x:q(t,n.x,e.x),y:q(t,n.y,e.y)}}function C(t,n,e){var r=function(t,n,e){return Math.round(q(t,n,e))}(t,n,e);return r<=0?0:r>=255?255:r}function V(t,n,e){return 0===t?n:1===t?e:{r:C(t,n.r,e.r),g:C(t,n.g,e.g),b:C(t,n.b,e.b),a:q(t,null==n.a?1:n.a,null==e.a?1:e.a)}}function G(t,n){for(var e=[],r=0;r<t;r++)e.push(n);return e}function z(t,n){if(--n<=0)return t;var e=(t=Object.assign([],t)).length;do{for(var r=0;r<e;r++)t.push(t[r])}while(--n>0);return t}var Y,$=function(){function t(n){r(this,t),this.list=n,this.length=n.length}return u(t,[{key:"setAttribute",value:function(t,n){for(var e=this.list,r=0;r<this.length;r++)e[r].setAttribute(t,n)}},{key:"removeAttribute",value:function(t){for(var n=this.list,e=0;e<this.length;e++)n[e].removeAttribute(t)}},{key:"style",value:function(t,n){for(var e=this.list,r=0;r<this.length;r++)e[r].style[t]=n}}]),t}(),U=/-./g,Q=function(t,n){return n.toUpperCase()};function H(t){return"function"==typeof t?t:T}function J(t){return t?"function"==typeof t?t:Array.isArray(t)?function(t){var n=arguments.length>1&&void 0!==arguments[1]?arguments[1]:b;if(!Array.isArray(t))return n;switch(t.length){case 1:return k(t[0])||n;case 2:return k(t[0],t[1])||n;case 4:return A(t[0],t[1],t[2],t[3])||n}return n}(t,null):function(t,n){var e=arguments.length>2&&void 0!==arguments[2]?arguments[2]:b;switch(t){case"linear":return b;case"steps":return k(n.steps||1,n.jump||0)||e;case"bezier":case"cubic-bezier":return A(n.x1||0,n.y1||0,n.x2||0,n.y2||0)||e}return e}(t.type,t.value,null):null}function Z(t,n,e){var r=arguments.length>3&&void 0!==arguments[3]&&arguments[3],i=n.length-1;if(t<=n[0].t)return r?[0,0,n[0].v]:n[0].v;if(t>=n[i].t)return r?[i,1,n[i].v]:n[i].v;var u,o=n[0],a=null;for(u=1;u<=i;u++){if(!(t>n[u].t)){a=n[u];break}o=n[u]}return null==a?r?[i,1,n[i].v]:n[i].v:o.t===a.t?r?[u,1,a.v]:a.v:(t=(t-o.t)/(a.t-o.t),o.e&&(t=o.e(t)),r?[u,t,e(t,o.v,a.v)]:e(t,o.v,a.v))}function K(t,n){var e=arguments.length>2&&void 0!==arguments[2]?arguments[2]:null;return t&&t.length?"function"!=typeof n?null:("function"!=typeof e&&(e=null),function(r){var i=Z(r,t,n);return null!=i&&e&&(i=e(i)),i}):null}function W(t,n){return t.t-n.t}function X(t,n,r,i,u){var o,a="@"===r[0],l="#"===r[0],s=Y[r],f=T;switch(a?(o=r.substr(1),r=o.replace(U,Q)):l&&(r=r.substr(1)),e(s)){case"function":if(f=s(i,u,Z,J,r,a,n,t),l)return f;break;case"string":f=K(i,H(s));break;case"object":if((f=K(i,H(s.i),s.f))&&"function"==typeof s.u)return s.u(n,f,r,a,t)}return f?function(t,n,e){if(arguments.length>3&&void 0!==arguments[3]&&arguments[3])return t instanceof $?function(r){return t.style(n,e(r))}:function(r){return t.style[n]=e(r)};if(Array.isArray(n)){var r=n.length;return function(i){var u=e(i);if(null==u)for(var o=0;o<r;o++)t[o].removeAttribute(n);else for(var a=0;a<r;a++)t[a].setAttribute(n,u)}}return function(r){var i=e(r);null==i?t.removeAttribute(n):t.setAttribute(n,i)}}(n,r,f,a):null}function tt(t,n,r,i){if(!i||"object"!==e(i))return null;var u=null,o=null;return Array.isArray(i)?o=function(t){if(!t||!t.length)return null;for(var n=0;n<t.length;n++)t[n].e&&(t[n].e=J(t[n].e));return t.sort(W)}(i):(o=i.keys,u=i.data||null),o?X(t,n,r,o,u):null}function nt(t,n,e){if(!e)return null;var r=[];for(var i in e)if(e.hasOwnProperty(i)){var u=tt(t,n,i,e[i]);u&&r.push(u)}return r.length?r:null}function et(t,n){if(!n.settings.duration||n.settings.duration<0)return null;var e,r,i,u,o,a=function(t,n){if(!n)return null;var e=[];if(Array.isArray(n))for(var r=n.length,i=0;i<r;i++){var u=n[i];if(2===u.length){var o=null;if("string"==typeof u[0])o=t.getElementById(u[0]);else if(Array.isArray(u[0])){o=[];for(var a=0;a<u[0].length;a++)if("string"==typeof u[0][a]){var l=t.getElementById(u[0][a]);l&&o.push(l)}o=o.length?1===o.length?o[0]:new $(o):null}if(o){var s=nt(t,o,u[1]);s&&(e=e.concat(s))}}}else for(var f in n)if(n.hasOwnProperty(f)){var c=t.getElementById(f);if(c){var h=nt(t,c,n[f]);h&&(e=e.concat(h))}}return e.length?e:null}(t,n.elements);return a?(e=a,r=n.settings,i=r.duration,u=e.length,o=null,function(t,n){var a=r.iterations||1/0,l=(r.alternate&&a%2==0)^r.direction>0?i:0,s=t%i,f=1+(t-s)/i;n*=r.direction,r.alternate&&f%2==0&&(n=-n);var c=!1;if(f>a)s=l,c=!0,-1===r.fill&&(s=r.direction>0?0:i);else if(n<0&&(s=i-s),s===o)return!1;o=s;for(var h=0;h<u;h++)e[h](s);return c}):null}function rt(t,n){if(Y=n,!t||!t.root||!Array.isArray(t.animations))return null;var e=function(t){for(var n=document.getElementsByTagName("svg"),e=0;e<n.length;e++)if(n[e].id===t.root&&!n[e].svgatorAnimation)return n[e].svgatorAnimation=!0,n[e];return null}(t);if(!e)return null;var r=t.animations.map((function(t){return et(e,t)})).filter((function(t){return!!t}));return r.length?{svg:e,animations:r,animationSettings:t.animationSettings,options:t.options||void 0}:null}function it(t){return+("0x"+(t.replace(/[^0-9a-fA-F]+/g,"")||27))}function ut(t,n,e){return!t||!e||n>t.length?t:t.substring(0,n)+ut(t.substring(n+1),e,e)}function ot(t){var n=arguments.length>1&&void 0!==arguments[1]?arguments[1]:27;return!t||t%n?t%n:ot(t/n,n)}function at(t,n,e){if(t&&t.length){var r=it(e),i=it(n),u=ot(r)+5,o=ut(t,ot(r,5),u);return o=o.replace(/\x7c$/g,"==").replace(/\x2f$/g,"="),o=function(t,n,e){var r=+("0x"+t.substring(0,4));t=t.substring(4);for(var i=n%r+e%27,u=[],o=0;o<t.length;o+=2)if("|"!==t[o]){var a=+("0x"+t[o]+t[o+1])-i;u.push(a)}else{var l=+("0x"+t.substring(o+1,o+1+4))-i;o+=3,u.push(l)}return String.fromCharCode.apply(String,u)}(o=(o=atob(o)).replace(/[\x41-\x5A]/g,""),i,r),o=JSON.parse(o)}}var lt=[{key:"alternate",def:!1},{key:"fill",def:1},{key:"iterations",def:0},{key:"direction",def:1},{key:"speed",def:1},{key:"fps",def:100}],st=function(){function t(n,e){var i=this,u=arguments.length>2&&void 0!==arguments[2]?arguments[2]:null;r(this,t),this._id=0,this._running=!1,this._rollingBack=!1,this._animations=n,this._settings=e,(!u||u<"2022-05-02")&&delete this._settings.speed,lt.forEach((function(t){i._settings[t.key]=i._settings[t.key]||t.def})),this.duration=e.duration,this.offset=e.offset||0,this.rollbackStartOffset=0}return u(t,[{key:"alternate",get:function(){return this._settings.alternate}},{key:"fill",get:function(){return this._settings.fill}},{key:"iterations",get:function(){return this._settings.iterations}},{key:"direction",get:function(){return this._settings.direction}},{key:"speed",get:function(){return this._settings.speed}},{key:"fps",get:function(){return this._settings.fps}},{key:"maxFiniteDuration",get:function(){return this.iterations>0?this.iterations*this.duration:this.duration}},{key:"_apply",value:function(t){for(var n=arguments.length>1&&void 0!==arguments[1]?arguments[1]:{},e=this._animations,r=e.length,i=0,u=0;u<r;u++)n[u]?i++:(n[u]=e[u](t,1),n[u]&&i++);return i}},{key:"_rollback",value:function(t){var n=this,e=1/0,r=null;this.rollbackStartOffset=t,this._rollingBack=!0,this._running=!0;this._id=window.requestAnimationFrame((function i(u){if(n._rollingBack){null==r&&(r=u);var o=Math.round(t-(u-r)*n.speed);if(o>n.duration&&e!==1/0){var a=!!n.alternate&&o/n.duration%2>1,l=o%n.duration;o=(l+=a?n.duration:0)||n.duration}var s=(n.fps?1e3/n.fps:0)*n.speed,f=Math.max(0,o);f<=e-s&&(n.offset=f,e=f,n._apply(f));var c=n.iterations>0&&-1===n.fill&&o>=n.maxFiniteDuration;(o<=0||n.offset<o||c)&&n.stop(),n._id=window.requestAnimationFrame(i)}}))}},{key:"_start",value:function(){var t=this,n=arguments.length>0&&void 0!==arguments[0]?arguments[0]:0,e=-1/0,r=null,i={};this._running=!0;var u=function u(o){null==r&&(r=o);var a=Math.round((o-r)*t.speed+n),l=(t.fps?1e3/t.fps:0)*t.speed;if(a>=e+l&&!t._rollingBack&&(t.offset=a,e=a,t._apply(a,i)===t._animations.length))return void t.pause(!0);t._id=window.requestAnimationFrame(u)};this._id=window.requestAnimationFrame(u)}},{key:"_pause",value:function(){this._id&&window.cancelAnimationFrame(this._id),this._running=!1}},{key:"play",value:function(){if(!this._running)return this._rollingBack?this._rollback(this.offset):this._start(this.offset)}},{key:"stop",value:function(){this._pause(),this.offset=0,this.rollbackStartOffset=0,this._rollingBack=!1,this._apply(0)}},{key:"reachedToEnd",value:function(){return this.iterations>0&&this.offset>=this.iterations*this.duration}},{key:"restart",value:function(){var t=arguments.length>0&&void 0!==arguments[0]&&arguments[0];this.stop(t),this.play(t)}},{key:"pause",value:function(){this._pause()}},{key:"reverse",value:function(){this.direction=-this.direction}}],[{key:"build",value:function(t,n){delete t.animationSettings,t.options=at(t.options,t.root,"5c7f360c"),t.animations.map((function(n){n.settings=at(n.s,t.root,"5c7f360c"),delete n.s,t.animationSettings||(t.animationSettings=n.settings)}));var e=t.version;if(!(t=rt(t,n)))return null;var r=t.options||{},i=new this(t.animations,t.animationSettings,e);return{el:t.svg,options:r,player:i}}},{key:"push",value:function(t){return this.build(t)}},{key:"init",value:function(){var t=this,n=window.__SVGATOR_PLAYER__&&window.__SVGATOR_PLAYER__["5c7f360c"];Array.isArray(n)&&n.splice(0).forEach((function(n){return t.build(n)}))}}]),t}();function ft(t){return p(t)+""}function ct(t){var n=arguments.length>1&&void 0!==arguments[1]?arguments[1]:" ";return t&&t.length?t.map(ft).join(n):""}function ht(t){if(!t)return"transparent";if(null==t.a||t.a>=1){var n=function(t){return 1===(t=parseInt(t).toString(16)).length?"0"+t:t},e=function(t){return t.charAt(0)===t.charAt(1)},r=n(t.r),i=n(t.g),u=n(t.b);return e(r)&&e(i)&&e(u)&&(r=r.charAt(0),i=i.charAt(0),u=u.charAt(0)),"#"+r+i+u}return"rgba("+t.r+","+t.g+","+t.b+","+t.a+")"}function vt(t){return t?"url(#"+t+")":"none"}!function(){for(var t=0,n=["ms","moz","webkit","o"],e=0;e<n.length&&!window.requestAnimationFrame;++e)window.requestAnimationFrame=window[n[e]+"RequestAnimationFrame"],window.cancelAnimationFrame=window[n[e]+"CancelAnimationFrame"]||window[n[e]+"CancelRequestAnimationFrame"];window.requestAnimationFrame||(window.requestAnimationFrame=function(n){var e=Date.now(),r=Math.max(0,16-(e-t)),i=window.setTimeout((function(){n(e+r)}),r);return t=e+r,i},window.cancelAnimationFrame=window.clearTimeout)}();var yt={f:null,i:function(t,n,e){return 0===t?n:1===t?e:{x:B(t,n.x,e.x),y:B(t,n.y,e.y)}},u:function(t,n){return function(e){var r=n(e);t.setAttribute("rx",ft(r.x)),t.setAttribute("ry",ft(r.y))}}},gt={f:null,i:function(t,n,e){return 0===t?n:1===t?e:{width:B(t,n.width,e.width),height:B(t,n.height,e.height)}},u:function(t,n){return function(e){var r=n(e);t.setAttribute("width",ft(r.width)),t.setAttribute("height",ft(r.height))}}};Object.freeze({M:2,L:2,Z:0,H:1,V:1,C:6,Q:4,T:2,S:4,A:7});var pt={},dt=null;function mt(t){var n=function(){if(dt)return dt;if("object"!==("undefined"==typeof document?"undefined":e(document))||!document.createElementNS)return{};var t=document.createElementNS("http://www.w3.org/2000/svg","svg");return t&&t.style?(t.style.position="absolute",t.style.opacity="0.01",t.style.zIndex="-9999",t.style.left="-9999px",t.style.width="1px",t.style.height="1px",dt={svg:t}):{}}().svg;if(!n)return function(t){return null};var r=document.createElementNS(n.namespaceURI,"path");r.setAttributeNS(null,"d",t),r.setAttributeNS(null,"fill","none"),r.setAttributeNS(null,"stroke","none"),n.appendChild(r);var i=r.getTotalLength();return function(t){var n=r.getPointAtLength(i*t);return{x:n.x,y:n.y}}}function bt(t){return pt[t]?pt[t]:pt[t]=mt(t)}function wt(t,n,e,r){if(!t||!r)return!1;var i=["M",t.x,t.y];if(n&&e&&(i.push("C"),i.push(n.x),i.push(n.y),i.push(e.x),i.push(e.y)),n?!e:e){var u=n||e;i.push("Q"),i.push(u.x),i.push(u.y)}return n||e||i.push("L"),i.push(r.x),i.push(r.y),i.join(" ")}function At(t,n,e,r){var i=arguments.length>4&&void 0!==arguments[4]?arguments[4]:1,u=wt(t,n,e,r),o=bt(u);try{return o(i)}catch(t){return null}}function _t(t,n,e){return t+(n-t)*e}function xt(t,n,e){var r=arguments.length>3&&void 0!==arguments[3]&&arguments[3],i={x:_t(t.x,n.x,e),y:_t(t.y,n.y,e)};return r&&(i.a=kt(t,n)),i}function kt(t,n){return Math.atan2(n.y-t.y,n.x-t.x)}function St(t,n,e,r){var i=1-r;return i*i*t+2*i*r*n+r*r*e}function Ot(t,n,e,r){return 2*(1-r)*(n-t)+2*r*(e-n)}function jt(t,n,e,r){var i=arguments.length>4&&void 0!==arguments[4]&&arguments[4],u=At(t,n,null,e,r);return u||(u={x:St(t.x,n.x,e.x,r),y:St(t.y,n.y,e.y,r)}),i&&(u.a=Et(t,n,e,r)),u}function Et(t,n,e,r){return Math.atan2(Ot(t.y,n.y,e.y,r),Ot(t.x,n.x,e.x,r))}function Mt(t,n,e,r,i){var u=i*i;return i*u*(r-t+3*(n-e))+3*u*(t+e-2*n)+3*i*(n-t)+t}function Pt(t,n,e,r,i){var u=1-i;return 3*(u*u*(n-t)+2*u*i*(e-n)+i*i*(r-e))}function It(t,n,e,r,i){var u=arguments.length>5&&void 0!==arguments[5]&&arguments[5],o=At(t,n,e,r,i);return o||(o={x:Mt(t.x,n.x,e.x,r.x,i),y:Mt(t.y,n.y,e.y,r.y,i)}),u&&(o.a=Rt(t,n,e,r,i)),o}function Rt(t,n,e,r,i){return Math.atan2(Pt(t.y,n.y,e.y,r.y,i),Pt(t.x,n.x,e.x,r.x,i))}function Ft(t,n,e){var r=arguments.length>3&&void 0!==arguments[3]&&arguments[3];if(Tt(n)){if(qt(e))return jt(n,e.start,e,t,r)}else if(Tt(e)){if(Bt(n))return jt(n,n.end,e,t,r)}else{if(Bt(n))return qt(e)?It(n,n.end,e.start,e,t,r):jt(n,n.end,e,t,r);if(qt(e))return jt(n,e.start,e,t,r)}return xt(n,e,t,r)}function Nt(t,n,e){var r=Ft(t,n,e,!0);return r.a=function(t){return arguments.length>1&&void 0!==arguments[1]&&arguments[1]?t+Math.PI:t}(r.a)/m,r}function Tt(t){return!t.type||"corner"===t.type}function qt(t){return null!=t.start&&!Tt(t)}function Bt(t){return null!=t.end&&!Tt(t)}var Dt=new N;var Lt={f:ft,i:q},Ct={f:ft,i:D};function Vt(t,n,e){return t.map((function(t){return function(t,n,e){var r=t.v;if(!r||"g"!==r.t||r.s||!r.v||!r.r)return t;var i=e.getElementById(r.r),u=i&&i.querySelectorAll("stop")||[];return r.s=r.v.map((function(t,n){var e=u[n]&&u[n].getAttribute("offset");return{c:t,o:e=p(parseInt(e)/100)}})),delete r.v,t}(t,0,e)}))}var Gt={gt:"gradientTransform",c:{x:"cx",y:"cy"},rd:"r",f:{x:"x1",y:"y1"},to:{x:"x2",y:"y2"}};function zt(t,n,r,i,u,o,a,l){return Vt(t,0,l),n=function(t,n,e){for(var r,i,u,o=t.length-1,a={},l=0;l<=o;l++)(r=t[l]).e&&(r.e=n(r.e)),r.v&&"g"===(i=r.v).t&&i.r&&(u=e.getElementById(i.r))&&(a[i.r]={e:u,s:u.querySelectorAll("stop")});return a}(t,i,l),function(i){var u=r(i,t,Yt);if(!u)return"none";if("c"===u.t)return ht(u.v);if("g"===u.t){if(!n[u.r])return vt(u.r);var o=n[u.r];return function(t,n){for(var e=t.s,r=e.length;r<n.length;r++){var i=e[e.length-1].cloneNode();i.id=Qt(i.id),t.e.appendChild(i),e=t.s=t.e.querySelectorAll("stop")}for(var u=0,o=e.length,a=n.length-1;u<o;u++)e[u].setAttribute("stop-color",ht(n[Math.min(u,a)].c)),e[u].setAttribute("offset",n[Math.min(u,a)].o)}(o,u.s),Object.keys(Gt).forEach((function(t){if(void 0!==u[t])if("object"!==e(Gt[t])){var n,r="gt"===t?(n=u[t],Array.isArray(n)?"matrix("+n.join(" ")+")":""):u[t],i=Gt[t];o.e.setAttribute(i,r)}else Object.keys(Gt[t]).forEach((function(n){if(void 0!==u[t][n]){var e=u[t][n],r=Gt[t][n];o.e.setAttribute(r,e)}}))})),vt(u.r)}return"none"}}function Yt(t,e,r){if(0===t)return e;if(1===t)return r;if(e&&r){var i=e.t;if(i===r.t)switch(e.t){case"c":return{t:i,v:V(t,e.v,r.v)};case"g":if(e.r===r.r){var u={t:i,s:$t(t,e.s,r.s),r:e.r};return e.gt&&r.gt&&(u.gt=function(t,n,e){var r=n.length;if(r!==e.length)return T(t,n,e);for(var i=new Array(r),u=0;u<r;u++)i[u]=q(t,n[u],e[u]);return i}(t,e.gt,r.gt)),e.c?(u.c=L(t,e.c,r.c),u.rd=B(t,e.rd,r.rd)):e.f&&(u.f=L(t,e.f,r.f),u.to=L(t,e.to,r.to)),u}}if("c"===e.t&&"g"===r.t||"c"===r.t&&"g"===e.t){var o="c"===e.t?e:r,a="g"===e.t?n({},e):n({},r),l=a.s.map((function(t){return{c:o.v,o:t.o}}));return a.s="c"===e.t?$t(t,l,a.s):$t(t,a.s,l),a}}return T(t,e,r)}function $t(t,n,e){if(n.length===e.length)return n.map((function(n,r){return Ut(t,n,e[r])}));for(var r=Math.max(n.length,e.length),i=[],u=0;u<r;u++){var o=Ut(t,n[Math.min(u,n.length-1)],e[Math.min(u,e.length-1)]);i.push(o)}return i}function Ut(t,n,e){return{o:D(t,n.o,e.o||0),c:V(t,n.c,e.c||{})}}function Qt(t){return t.replace(/-fill-([0-9]+)$/,(function(t,n){return"-fill-"+(+n+1)}))}var Ht={fill:zt,"fill-opacity":Ct,stroke:zt,"stroke-opacity":Ct,"stroke-width":Lt,"stroke-dashoffset":{f:ft,i:q},"stroke-dasharray":{f:function(t){var n=arguments.length>1&&void 0!==arguments[1]?arguments[1]:" ";return t&&t.length>0&&(t=t.map((function(t){return p(t,4)}))),ct(t,n)},i:function(t,n,e){var r,i,u,o=n.length,a=e.length;if(o!==a)if(0===o)n=G(o=a,0);else if(0===a)a=o,e=G(o,0);else{var l=(u=(r=o)*(i=a)/function(t,n){for(var e;n;)e=n,n=t%n,t=e;return t||1}(r,i))<0?-u:u;n=z(n,Math.floor(l/o)),e=z(e,Math.floor(l/a)),o=a=l}for(var s=[],f=0;f<o;f++)s.push(p(B(t,n[f],e[f])));return s}},opacity:Ct,transform:function(t,n,r,i){if(!(t=function(t,n){if(!t||"object"!==e(t))return null;var r=!1;for(var i in t)t.hasOwnProperty(i)&&(t[i]&&t[i].length?(t[i].forEach((function(t){t.e&&(t.e=n(t.e))})),r=!0):delete t[i]);return r?t:null}(t,i)))return null;var u=function(e,i,u){var o=arguments.length>3&&void 0!==arguments[3]?arguments[3]:null;return t[e]?r(i,t[e],u):n&&n[e]?n[e]:o};return n&&n.a&&t.o?function(n){var e=r(n,t.o,Nt);return Dt.recomposeSelf(e,u("r",n,q,0)+e.a,u("k",n,L),u("s",n,L),u("t",n,L)).toString()}:function(t){return Dt.recomposeSelf(u("o",t,Ft,null),u("r",t,q,0),u("k",t,L),u("s",t,L),u("t",t,L)).toString()}},r:Lt,"#size":gt,"#radius":yt,_:function(t,n){if(Array.isArray(t))for(var e=0;e<t.length;e++)this[t[e]]=n;else this[t]=n}},Jt=function(t){!function(t,n){if("function"!=typeof n&&null!==n)throw new TypeError("Super expression must either be null or a function");t.prototype=Object.create(n&&n.prototype,{constructor:{value:t,writable:!0,configurable:!0}}),n&&l(t,n)}(o,t);var n,e,i=(n=o,e=s(),function(){var t,r=a(n);if(e){var i=a(this).constructor;t=Reflect.construct(r,arguments,i)}else t=r.apply(this,arguments);return c(this,t)});function o(){return r(this,o),i.apply(this,arguments)}return u(o,null,[{key:"build",value:function(t){var n=h(a(o),"build",this).call(this,t,Ht);if(!n)return null;n.el,n.options,function(t,n,e){t.play()}(n.player)}}]),o}(st);return Jt.init(),Jt}));
(function(s,i,o,w,d,a,b){w[o]=w[o]||{};w[o][s]=w[o][s]||[];w[o][s].push(i);})('5c7f360c',{"root":"eHYZUpGuIb71","version":"2022-05-04","animations":[{"elements":{"eHYZUpGuIb72":{"transform":{"data":{"o":{"x":442.792439,"y":523.342838,"type":"corner"},"t":{"x":-375.912318,"y":-534.292999}},"keys":{"s":[{"t":0,"v":{"x":0.599702,"y":0.599702}},{"t":1000,"v":{"x":0.686959,"y":0.768672}},{"t":2200,"v":{"x":0.599702,"y":0.599702}}]}}},"eHYZUpGuIb73":{"transform":{"data":{"s":{"x":0.718579,"y":0.718579},"t":{"x":-453.954264,"y":-247.64}},"keys":{"o":[{"t":0,"v":{"x":448.167417,"y":362.2901,"type":"corner"}},{"t":900,"v":{"x":449.590198,"y":232.206908,"type":"corner"}},{"t":1000,"v":{"x":449.584225,"y":226.366823,"type":"corner"}},{"t":1100,"v":{"x":449.590198,"y":232.206908,"type":"corner"}},{"t":2200,"v":{"x":448.167417,"y":362.2901,"type":"corner"},"e":[0.25,1,0.25,1]}]}}},"eHYZUpGuIb721":{"transform":{"data":{"t":{"x":-651.061615,"y":-161.261055}},"keys":{"o":[{"t":0,"v":{"x":651.061615,"y":161.261055,"type":"corner"}},{"t":1200,"v":{"x":655.254577,"y":133.581734,"type":"corner"}},{"t":2200,"v":{"x":651.061615,"y":161.261055,"type":"corner"}}]}}},"eHYZUpGuIb725":{"transform":{"data":{"t":{"x":-462.756073,"y":-245.264305}},"keys":{"o":[{"t":0,"v":{"x":462.756073,"y":245.264305,"type":"corner"}},{"t":1200,"v":{"x":466.949035,"y":217.584984,"type":"corner"}},{"t":2200,"v":{"x":462.756073,"y":245.264305,"type":"corner"}}]}}}},"s":"MMDA1ZDkwMzc3OThhODOc3Njg5N2U4NDgzMzcG0ZjQ3NDc0NUg0NTQxHMzc3OTdlODc3YTc4OODk3ZTg0ODMzNzRmNDAY0MTM3N2U4OTdhODdIDNzY4OTdlODQ4Mzg4SMzc0ZjQ1NDEzNzdiSHjdlODE4MTM3NGY0NjDQxMzc3NjgxTzg5N2ER4NzgzNzY4OTdhMzc0TZjdiNzY4MTg4N2E0MATM3ODg4NTdhUTdhNzUkzNzRmNDY0MU4zNzdXiODVDODgzNzRmNDZESNDU0NTky"}],"options":"MXDAxMDg4MmY4MDgxNmKU3ZjgxMmY0NzJmNzkE3YzZlNzEyZjhh"},'__SVGATOR_PLAYER__',window,document)
]]></script>
</svg>
