<?xml version="1.0" encoding="UTF-8"?>
<svg xmlns="http://www.w3.org/2000/svg" viewBox="0 0 1920 1080">
  <defs>
    <style>
      .cls-1 {
        fill: red;
      }

      .cls-1, .cls-2, .cls-3 {
        stroke-width: 0px;
      }

      .cls-2 {
        fill: #081948;
      }

      .cls-3 {
        fill: #fff;
      }
    </style>
  </defs>
  <g id="Layer_1" data-name="Layer 1">
    <g>
      <path class="cls-2" d="m1069.17,630.77h-91.32c-3.27,0-5.64.52-7.1,1.55-1.47,1.03-2.2,2.28-2.2,3.75v40.56c0,2.41.62,3.98,1.87,4.71,1.25.73,3.72,1.1,7.43,1.1h54.77c3.36,0,5.77-.54,7.23-1.61,1.46-1.08,2.2-2.47,2.2-4.2v-11.63h-38.36v-19.12h65.88v34.75c0,4.22-.45,7.73-1.36,10.53-.9,2.8-2.52,5.36-4.84,7.68-2.24,2.15-4.71,3.81-7.43,4.97-2.71,1.16-6.12,2.02-10.2,2.58-4.09.56-9.09.93-14.98,1.1-5.9.17-14.45.26-25.64.26s-19.72-.09-25.57-.26c-5.86-.17-10.81-.54-14.85-1.1-4.05-.56-7.36-1.42-9.95-2.58-2.58-1.16-4.95-2.82-7.1-4.97-2.58-2.24-4.35-4.76-5.3-7.56-.95-2.8-1.42-6.35-1.42-10.66v-46.76c0-9.21,2.76-16.19,8.27-20.93,5.51-4.73,13.9-7.1,25.19-7.1h94.81v24.93Z"/>
      <path class="cls-2" d="m1145.11,690.06l-9.43,17.31h-35.13l55.67-101.53h40.56l55.15,101.53h-35.13l-9.3-17.31h-62.39Zm11.5-21.83h39.27l-19.63-36.55-19.63,36.55Z"/>
      <path class="cls-2" d="m1376.84,707.37h-21.31l-37.46-73.88h-.39v73.88h-29.45v-101.53h49.47l28.03,59.16.39.52,28.16-59.67h49.34v101.53h-29.32v-73.88h-.52l-36.94,73.88Z"/>
      <path class="cls-2" d="m1599.78,683.73v23.64h-111.34v-101.53h111.34v23.51h-79.7v17.05h74.79v20.54h-74.79v16.79h79.7Z"/>
      <path class="cls-2" d="m1763.18,676.24c0,10.94-2.43,18.86-7.3,23.77-4.87,4.91-12.68,7.36-23.44,7.36h-91.71v-21.96h78.27c1.81,0,3.47-.08,4.97-.26,1.51-.17,2.91-.54,4.2-1.1,1.29-.56,2.32-1.4,3.1-2.52.77-1.12,1.16-2.58,1.16-4.39,0-2.07-.54-3.72-1.61-4.97-1.08-1.25-2.48-2.15-4.2-2.71-1.72-.56-3.51-.9-5.36-1.03-1.85-.13-4.11-.19-6.78-.19-1.64-.08-6.24-.26-13.82-.52-11.88-.43-19.33-.71-22.35-.84-3.02-.13-5.86-.26-8.53-.39-2.67-.13-4.95-.28-6.85-.45-9.56-.52-16.4-3.66-20.54-9.43-2.93-4.31-4.39-10.72-4.39-19.25,0-10.5,2.02-18.38,6.07-23.64,4.05-5.25,10.76-7.88,20.15-7.88h95.2v21.96h-78.28c-1.72,0-3.27.09-4.65.26-1.38.17-2.67.54-3.88,1.1-1.21.56-2.18,1.4-2.91,2.52-.73,1.12-1.1,2.58-1.1,4.39,0,3.27,1.16,5.42,3.49,6.46s5.55,1.55,9.69,1.55h5.3c1.55.09,6.07.26,13.56.52,10.33.34,17.5.6,21.51.77,4,.17,7.38.32,10.14.45s5.04.28,6.85.45c9.47.51,16.1,3.96,19.89,10.33,2.75,5.25,4.13,11.8,4.13,19.63Z"/>
    </g>
  </g>
  <g id="Grimwood">
    <g>
      <path class="cls-1" d="m844.86,502.58l-12.33-28.05,63.48-.14v94.93h-62.06c-10.49,0-19.44-2.08-26.85-6.23-7.42-4.16-13.11-9.73-17.07-16.72s-5.95-14.74-5.95-23.24v-110.66c0-8.5,1.98-16.25,5.95-23.24,3.97-6.99,9.66-12.56,17.07-16.72,7.41-4.16,16.36-6.23,26.85-6.23h62.06l-4.96,79.06-33.16-2.41v-41.52h-2.83c-6.61,0-12,.28-16.15.85-4.16.57-7.2,1.68-9.14,3.33-1.94,1.65-3.1,4.04-3.47,7.16-.38,3.12-.57,7.22-.57,12.33v80.62c.09,12.19,2.27,20.17,6.52,23.95,4.16,3.59,11.29,5.38,21.39,5.38h.85v-32.87l-9.63.42Z"/>
      <path class="cls-1" d="m986.84,569.74l-14.03-53.42c-4.91,3.59-9.59,6.9-14.03,9.92v43.07h-41.66v-203.04h60.36c10.58,0,19.58,2.08,26.99,6.23,7.41,4.16,13.11,9.73,17.07,16.72,3.97,6.99,5.95,14.74,5.95,23.24v60.22c-5.57,5.29-11.86,10.77-18.84,16.44l21.25,80.62h-43.07Zm-28.05-169.18v80.06c10.2-6.33,20.26-14.36,30.18-24.09v-21.82c0-8.31-.17-14.78-.5-19.41-.33-4.63-1.42-8-3.26-10.13-1.84-2.13-4.84-3.47-9-4.04-3.5-.38-8.12-.57-13.89-.57h-3.54Z"/>
      <path class="cls-1" d="m1124.27,394.62l-20.97-.85v145.94l20.97.43v29.19h-77.5l-12.33-26.35,27.2-1.98v-147.22l-14.88.71-12.33-28.05,89.83-.14v28.34Z"/>
      <path class="cls-1" d="m1269.93,366.28h50.72v203.04h-41.66v-160.39l-26.92,29.61v130.78h-41.66v-130.78l-26.92-29.61v160.39h-41.52v-203.04h50.58l38.68,38.11,38.68-38.11Z"/>
      <path class="cls-1" d="m1478.92,366.28h41.66v163.22l-42.65,43.22-25.93-25.5v17.57l-41.66,8.22v-25.79l-25.93,25.5-42.65-43.22v-163.22h41.66v155.86l26.92-29.61v-97.34l-12.61-28.9h54.27v126.24l26.92,29.61v-155.86Z"/>
      <path class="cls-1" d="m1651.22,396.74c.38,1.32.73,3.19,1.06,5.6.33,2.41.5,4.37.5,5.88v118.31c0,8.5-1.98,16.22-5.95,23.17-3.97,6.94-9.66,12.49-17.07,16.65-7.42,4.16-16.41,6.23-26.99,6.23h-14.03c-10.48,0-19.46-2.08-26.92-6.23-7.46-4.16-13.15-9.71-17.07-16.65-3.92-6.94-5.88-14.66-5.88-23.17v-117.46c0-8.5,1.96-16.22,5.88-23.17,3.92-6.94,9.61-12.49,17.07-16.65,7.46-4.16,16.44-6.23,26.92-6.23h14.03c13.13,0,23.85,3.14,32.16,9.42,8.31,6.28,13.74,14.38,16.29,24.3Zm-40.1,34.71c0-8.88-.24-15.78-.71-20.69-.47-4.91-1.77-8.34-3.9-10.27-2.12-1.94-5.69-2.91-10.7-2.91s-8.6.97-10.77,2.91c-2.17,1.94-3.5,5.36-3.97,10.27-.47,4.91-.71,11.81-.71,20.69v72.69c0,8.88.23,15.78.71,20.69.47,4.91,1.77,8.34,3.9,10.27,2.12,1.94,5.74,2.91,10.84,2.91s8.71-.97,10.84-2.91c2.13-1.94,3.4-5.36,3.83-10.27.42-4.91.64-11.81.64-20.69v-72.69Z"/>
      <path class="cls-1" d="m1782.42,396.74c.38,1.32.73,3.19,1.06,5.6.33,2.41.5,4.37.5,5.88v118.31c0,8.5-1.99,16.22-5.95,23.17-3.97,6.94-9.66,12.49-17.07,16.65-7.42,4.16-16.41,6.23-26.99,6.23h-14.03c-10.48,0-19.46-2.08-26.92-6.23-7.46-4.16-13.15-9.71-17.07-16.65-3.92-6.94-5.88-14.66-5.88-23.17v-117.46c0-8.5,1.96-16.22,5.88-23.17,3.92-6.94,9.61-12.49,17.07-16.65,7.46-4.16,16.44-6.23,26.92-6.23h14.03c13.13,0,23.85,3.14,32.16,9.42,8.31,6.28,13.74,14.38,16.29,24.3Zm-40.1,34.71c0-8.88-.24-15.78-.71-20.69-.47-4.91-1.77-8.34-3.9-10.27s-5.69-2.91-10.7-2.91-8.6.97-10.77,2.91c-2.17,1.94-3.49,5.36-3.97,10.27-.47,4.91-.71,11.81-.71,20.69v72.69c0,8.88.23,15.78.71,20.69.47,4.91,1.77,8.34,3.9,10.27,2.13,1.94,5.74,2.91,10.84,2.91s8.71-.97,10.84-2.91c2.13-1.94,3.4-5.36,3.83-10.27.43-4.91.64-11.81.64-20.69v-72.69Z"/>
      <path class="cls-1" d="m1920,412.47v110.66c0,8.5-1.98,16.25-5.95,23.24-3.97,6.99-9.68,12.56-17.14,16.72-7.46,4.16-16.44,6.23-26.92,6.23h-66.03v-203.04h66.03c10.49,0,19.46,2.08,26.92,6.23,7.46,4.16,13.18,9.73,17.14,16.72,3.97,6.99,5.95,14.74,5.95,23.24Zm-74.39,122.56c2.64.1,5.05.14,7.23.14,9.82,0,16.39-.99,19.69-2.98,3.87-2.27,5.81-8.45,5.81-18.56v-91.67c0-10.11-1.94-16.29-5.81-18.56-3.31-1.98-9.87-2.98-19.69-2.98-2.18,0-4.58.05-7.23.14v134.46Z"/>
    </g>
  </g>
  <g id="Head">
    <polygon class="cls-3" points="352.61 45.66 723.16 335.74 723.16 704.18 352.61 990.03 -1 706.29 -1 339.98 352.61 45.66"/>
    <g>
      <path class="cls-2" d="m352.61,45.66L-1,339.98v366.32l174.5,140c-.02-.25-.04-.49-.04-.72-.97-37.27.49-98.46-.78-140.53-36.65-31.25-111.89-97.61-147.48-127.13-.49-40.15-.28-92.96.72-121.39.57-.38,73.67-47.57,84.08-54.33l-70.76-55.86L361.08,90.12l326.08,258.33-54.95,42.46c2.21,2.36,54.96,65.22,55.56,65.61,1,28.44,1.21,81.25.72,121.39-35.91,29.79-111.12,83.22-147.27,112.41-1.63,42.79.02,115.72-1,154.95l182.93-141.11v-368.43L352.61,45.66Z"/>
      <path class="cls-2" d="m564.8,502.48c4.66-15.15,5.19-31.56,10.52-46.5-56.63,53.88-113.26,107.75-169.89,161.63,43.14-19.66,95.28-24.63,135.4-49.21,15.63-9.58,16.94-43.04,23.97-65.92Z"/>
      <circle class="cls-1" cx="182.43" cy="349.51" r="43.79" transform="translate(-75.42 51.26) rotate(-13.28)"/>
      <circle class="cls-1" cx="533.38" cy="349.51" r="43.79" transform="translate(-66.03 131.9) rotate(-13.28)"/>
      <circle class="cls-1" cx="353.67" cy="214.37" r="43.79" transform="translate(-29.77 59.42) rotate(-9.22)"/>
      <circle class="cls-1" cx="353.67" cy="353.74" r="43.79"/>
      <circle class="cls-1" cx="353.67" cy="493.11" r="43.79"/>
      <path class="cls-2" d="m154.14,524.89c2.8,38.69,23.99,56.39,60.01,63.82,32.82,6.75,64.26,20.07,96.81,28.16l-172.13-163.83c3.22,24.08,13.55,47.64,15.31,71.84Z"/>
      <polygon class="cls-2" points="231.92 666.06 231.92 893.18 295.44 944.17 295.44 691.47 231.92 666.06"/>
      <polygon class="cls-2" points="407.66 691.47 407.66 947.55 471.19 898.56 471.19 668.18 407.66 691.47"/>
      <polygon class="cls-2" points="320.85 683 320.85 964.54 352.61 990.03 384.37 965.53 384.37 683 320.85 683"/>
    </g>
  </g>
</svg>