<?xml version="1.0" encoding="UTF-8"?>
<svg xmlns="http://www.w3.org/2000/svg" viewBox="0 0 1920 1080">
  <defs>
    <style>
      .cls-1, .cls-2 {
        fill: red;
      }

      .cls-1, .cls-3 {
        stroke-width: 0px;
      }

      .cls-2, .cls-4, .cls-5 {
        stroke: #fff;
        stroke-miterlimit: 10;
        stroke-width: 14px;
      }

      .cls-3, .cls-5 {
        fill: #081948;
      }

      .cls-4 {
        fill: #fff;
      }
    </style>
  </defs>
  <g id="Layer_1" data-name="Layer 1">
    <g>
      <path class="cls-5" d="m1058.99,623.01h-89.35c-3.2,0-5.52.51-6.95,1.52-1.43,1.01-2.15,2.23-2.15,3.67v39.68c0,2.36.61,3.9,1.83,4.61,1.22.72,3.64,1.07,7.27,1.07h53.59c3.29,0,5.64-.53,7.08-1.58,1.43-1.05,2.15-2.42,2.15-4.11v-11.37h-37.54v-18.71h64.46v34c0,4.13-.44,7.56-1.33,10.3-.88,2.74-2.46,5.24-4.74,7.52-2.19,2.11-4.61,3.73-7.27,4.87-2.65,1.14-5.98,1.98-9.98,2.53-4,.55-8.89.91-14.66,1.07-5.77.17-14.14.25-25.09.25s-19.29-.08-25.02-.25c-5.73-.17-10.58-.52-14.53-1.07-3.96-.55-7.2-1.39-9.73-2.53-2.53-1.14-4.85-2.76-6.95-4.87-2.53-2.19-4.26-4.65-5.18-7.39-.93-2.74-1.39-6.21-1.39-10.43v-45.75c0-9.02,2.7-15.84,8.09-20.48,5.39-4.63,13.61-6.95,24.64-6.95h92.77v24.39Z"/>
      <path class="cls-5" d="m1133.31,681.02l-9.23,16.93h-34.38l54.47-99.34h39.69l53.97,99.34h-34.38l-9.1-16.93h-61.04Zm11.25-21.36h38.42l-19.21-35.77-19.21,35.77Z"/>
      <path class="cls-5" d="m1360.04,697.96h-20.85l-36.65-72.29h-.38v72.29h-28.82v-99.34h48.41l27.43,57.88.38.51,27.55-58.39h48.28v99.34h-28.69v-72.29h-.5l-36.15,72.29Z"/>
      <path class="cls-5" d="m1578.18,674.83v23.13h-108.94v-99.34h108.94v23h-77.98v16.68h73.18v20.1h-73.18v16.43h77.98Z"/>
      <path class="cls-5" d="m1738.06,667.5c0,10.7-2.38,18.45-7.14,23.25-4.76,4.8-12.41,7.2-22.94,7.2h-89.73v-21.48h76.59c1.77,0,3.39-.08,4.87-.25,1.47-.17,2.84-.53,4.11-1.07,1.26-.55,2.27-1.37,3.03-2.46.76-1.09,1.14-2.53,1.14-4.3,0-2.02-.53-3.64-1.58-4.87-1.05-1.22-2.42-2.1-4.11-2.65-1.69-.55-3.43-.88-5.24-1.01-1.81-.13-4.02-.19-6.63-.19-1.6-.08-6.11-.25-13.52-.51-11.63-.42-18.92-.7-21.86-.82-2.95-.13-5.73-.25-8.34-.38-2.61-.13-4.85-.27-6.7-.44-9.35-.51-16.05-3.58-20.1-9.23-2.87-4.21-4.3-10.49-4.3-18.83,0-10.28,1.98-17.99,5.94-23.13,3.96-5.14,10.53-7.71,19.72-7.71h93.15v21.48h-76.59c-1.69,0-3.2.08-4.55.25-1.35.17-2.61.53-3.79,1.07-1.18.55-2.13,1.37-2.84,2.46-.72,1.1-1.07,2.53-1.07,4.3,0,3.2,1.14,5.31,3.41,6.32s5.43,1.52,9.48,1.52h5.18c1.52.08,5.94.25,13.27.51,10.11.34,17.12.59,21.04.76,3.92.17,7.22.32,9.92.44s4.93.28,6.7.44c9.27.5,15.75,3.88,19.46,10.11,2.69,5.14,4.04,11.54,4.04,19.21Z"/>
    </g>
  </g>
  <g id="Grimwood">
    <g>
      <path class="cls-2" d="m839.53,497.58l-12.06-27.45,62.11-.14v92.89h-60.72c-10.26,0-19.02-2.03-26.27-6.1-7.26-4.07-12.82-9.52-16.71-16.36-3.88-6.84-5.82-14.42-5.82-22.74v-108.27c0-8.32,1.94-15.9,5.82-22.74,3.88-6.84,9.45-12.29,16.71-16.36,7.25-4.07,16.01-6.1,26.27-6.1h60.72l-4.85,77.36-32.44-2.36v-40.62h-2.77c-6.47,0-11.74.28-15.8.83-4.07.55-7.05,1.64-8.94,3.26-1.9,1.62-3.03,3.95-3.4,7-.37,3.05-.55,7.07-.55,12.06v78.88c.09,11.92,2.22,19.73,6.38,23.43,4.07,3.51,11.04,5.27,20.93,5.27h.83v-32.16l-9.43.41Z"/>
      <path class="cls-2" d="m978.44,563.3l-13.72-52.27c-4.81,3.51-9.38,6.75-13.72,9.7v42.15h-40.76v-198.67h59.06c10.35,0,19.15,2.03,26.41,6.1,7.25,4.07,12.82,9.52,16.71,16.36,3.88,6.84,5.82,14.42,5.82,22.74v58.92c-5.45,5.18-11.6,10.54-18.44,16.08l20.8,78.88h-42.15Zm-27.45-165.53v78.33c9.98-6.19,19.82-14.05,29.53-23.57v-21.35c0-8.13-.16-14.46-.49-18.99-.32-4.53-1.39-7.83-3.19-9.91-1.8-2.08-4.74-3.4-8.8-3.95-3.42-.37-7.95-.55-13.59-.55h-3.47Z"/>
      <path class="cls-2" d="m1112.92,391.94l-20.52-.83v142.8l20.52.42v28.56h-75.83l-12.06-25.79,26.62-1.94v-144.04l-14.56.69-12.06-27.45,87.9-.14v27.73Z"/>
      <path class="cls-2" d="m1255.44,364.22h49.63v198.67h-40.76v-156.94l-26.34,28.98v127.96h-40.76v-127.96l-26.34-28.98v156.94h-40.62v-198.67h49.49l37.85,37.29,37.85-37.29Z"/>
      <path class="cls-2" d="m1459.93,364.22h40.76v159.71l-41.73,42.29-25.37-24.95v17.19l-40.76,8.04v-25.23l-25.37,24.95-41.73-42.29v-159.71h40.76v152.5l26.34-28.98v-95.24l-12.34-28.28h53.1v123.52l26.34,28.98v-152.5Z"/>
      <path class="cls-2" d="m1628.51,394.02c.37,1.29.72,3.12,1.04,5.47.32,2.36.49,4.28.49,5.75v115.76c0,8.32-1.94,15.87-5.82,22.67-3.88,6.79-9.45,12.22-16.71,16.29-7.26,4.07-16.06,6.1-26.41,6.1h-13.73c-10.26,0-19.04-2.03-26.34-6.1-7.3-4.07-12.87-9.5-16.71-16.29-3.83-6.79-5.75-14.35-5.75-22.67v-114.93c0-8.32,1.92-15.87,5.75-22.67,3.83-6.79,9.4-12.22,16.71-16.29,7.3-4.07,16.08-6.1,26.34-6.1h13.73c12.85,0,23.34,3.07,31.47,9.22,8.13,6.15,13.45,14.07,15.94,23.78Zm-39.23,33.97c0-8.69-.23-15.44-.69-20.24-.46-4.8-1.73-8.16-3.81-10.05-2.08-1.89-5.57-2.84-10.47-2.84s-8.41.95-10.54,2.84c-2.13,1.89-3.42,5.25-3.88,10.05-.46,4.81-.69,11.55-.69,20.24v71.12c0,8.69.23,15.44.69,20.24.46,4.81,1.73,8.16,3.81,10.05,2.08,1.9,5.61,2.84,10.61,2.84s8.53-.95,10.6-2.84c2.08-1.89,3.33-5.24,3.74-10.05.42-4.8.62-11.55.62-20.24v-71.12Z"/>
      <path class="cls-2" d="m1756.88,394.02c.37,1.29.72,3.12,1.04,5.47.32,2.36.49,4.28.49,5.75v115.76c0,8.32-1.94,15.87-5.82,22.67-3.88,6.79-9.45,12.22-16.71,16.29-7.26,4.07-16.06,6.1-26.41,6.1h-13.73c-10.26,0-19.04-2.03-26.34-6.1-7.3-4.07-12.87-9.5-16.71-16.29-3.83-6.79-5.75-14.35-5.75-22.67v-114.93c0-8.32,1.92-15.87,5.75-22.67,3.84-6.79,9.4-12.22,16.71-16.29,7.3-4.07,16.08-6.1,26.34-6.1h13.73c12.85,0,23.34,3.07,31.47,9.22,8.13,6.15,13.45,14.07,15.94,23.78Zm-39.24,33.97c0-8.69-.23-15.44-.69-20.24-.46-4.8-1.73-8.16-3.81-10.05s-5.57-2.84-10.47-2.84-8.41.95-10.54,2.84c-2.12,1.89-3.42,5.25-3.88,10.05-.46,4.81-.69,11.55-.69,20.24v71.12c0,8.69.23,15.44.69,20.24.46,4.81,1.73,8.16,3.81,10.05,2.08,1.9,5.62,2.84,10.61,2.84s8.53-.95,10.61-2.84c2.08-1.89,3.33-5.24,3.74-10.05.42-4.8.62-11.55.62-20.24v-71.12Z"/>
      <path class="cls-2" d="m1891.5,409.41v108.27c0,8.32-1.94,15.9-5.82,22.74-3.88,6.84-9.47,12.29-16.77,16.36-7.3,4.07-16.08,6.1-26.34,6.1h-64.6v-198.67h64.6c10.26,0,19.04,2.03,26.34,6.1,7.3,4.07,12.89,9.52,16.77,16.36,3.88,6.84,5.82,14.42,5.82,22.74Zm-72.78,119.92c2.59.09,4.94.14,7.07.14,9.61,0,16.03-.97,19.27-2.91,3.79-2.22,5.69-8.27,5.69-18.16v-89.7c0-9.89-1.9-15.94-5.69-18.16-3.24-1.94-9.66-2.91-19.27-2.91-2.13,0-4.49.05-7.07.14v131.57Z"/>
    </g>
  </g>
  <g id="Head">
    <polygon class="cls-4" points="366.38 59 728.95 342.84 728.95 703.34 366.38 983.03 20.38 705.41 20.38 346.98 366.38 59"/>
    <g>
      <path class="cls-3" d="m366.38,59L20.38,346.98v358.42l170.74,136.99c-.02-.25-.04-.48-.04-.7-.95-36.46.48-96.34-.77-137.51-35.86-30.58-109.47-95.51-144.3-124.39-.48-39.28-.27-90.95.7-118.78.56-.37,72.08-46.55,82.26-53.16l-69.23-54.66L374.66,102.51l319.06,252.76-53.76,41.55c2.17,2.31,53.77,63.81,54.37,64.2.97,27.82,1.18,79.5.7,118.78-35.14,29.15-108.73,81.42-144.09,109.99-1.6,41.87.02,113.22-.97,151.62l178.98-138.07v-360.5L366.38,59Z"/>
      <path class="cls-3" d="m573.99,505.99c4.56-14.82,5.08-30.88,10.29-45.5-55.41,52.72-110.82,105.43-166.23,158.15,42.21-19.24,93.23-24.1,132.49-48.15,15.3-9.37,16.57-42.12,23.46-64.5Z"/>
      <circle class="cls-1" cx="199.86" cy="356.31" r="42.84" transform="translate(-76.52 55.45) rotate(-13.28)"/>
      <circle class="cls-1" cx="543.25" cy="356.31" r="42.84" transform="translate(-67.33 134.35) rotate(-13.28)"/>
      <circle class="cls-1" cx="367.41" cy="224.08" r="42.84" transform="translate(-31.15 61.75) rotate(-9.22)"/>
      <circle class="cls-1" cx="367.41" cy="360.45" r="42.84"/>
      <circle class="cls-1" cx="367.41" cy="496.82" r="42.84"/>
      <path class="cls-3" d="m172.19,527.91c2.73,37.85,23.47,55.17,58.72,62.44,32.11,6.61,62.88,19.64,94.72,27.56l-168.42-160.3c3.15,23.56,13.26,46.62,14.98,70.3Z"/>
      <polygon class="cls-3" points="248.28 666.04 248.28 888.27 310.44 938.15 310.44 690.9 248.28 666.04"/>
      <polygon class="cls-3" points="420.24 690.9 420.24 941.47 482.4 893.53 482.4 668.11 420.24 690.9"/>
      <polygon class="cls-3" points="335.3 682.62 335.3 958.09 366.38 983.03 397.45 959.06 397.45 682.62 335.3 682.62"/>
    </g>
  </g>
</svg>