<?xml version="1.0" encoding="UTF-8"?>
<svg id="Layer_1" data-name="Layer 1" xmlns="http://www.w3.org/2000/svg" viewBox="0 0 1080 1920">
  <defs>
    <style>
      .cls-1 {
        fill: #fff;
      }

      .cls-1, .cls-2, .cls-3 {
        stroke-width: 0px;
      }

      .cls-2 {
        fill: #ed2224;
      }

      .cls-3 {
        fill: #141c47;
      }
    </style>
  </defs>
  <g>
    <path class="cls-3" d="m276.01,1429.71h-85.22c-3.06,0-5.26.48-6.63,1.45-1.37.96-2.05,2.13-2.05,3.5v37.85c0,2.25.58,3.72,1.75,4.4,1.16.68,3.48,1.02,6.93,1.02h51.11c3.13,0,5.38-.5,6.75-1.51,1.37-1,2.05-2.31,2.05-3.92v-10.85h-35.8v-17.84h61.48v32.43c0,3.94-.42,7.21-1.27,9.82-.84,2.61-2.35,5-4.52,7.17-2.09,2.01-4.4,3.56-6.93,4.64-2.53,1.08-5.71,1.89-9.52,2.41-3.82.52-8.48.86-13.98,1.02-5.51.16-13.48.24-23.93.24s-18.4-.08-23.87-.24c-5.47-.16-10.09-.5-13.86-1.02-3.78-.52-6.87-1.33-9.28-2.41-2.41-1.08-4.62-2.63-6.63-4.64-2.41-2.09-4.06-4.44-4.94-7.05-.88-2.61-1.33-5.93-1.33-9.94v-43.64c0-8.6,2.57-15.11,7.72-19.53,5.14-4.42,12.98-6.63,23.51-6.63h88.48v23.27Z"/>
    <path class="cls-3" d="m346.89,1485.04l-8.8,16.15h-32.79l51.95-94.75h37.85l51.47,94.75h-32.79l-8.68-16.15h-58.22Zm10.73-20.37h36.65l-18.32-34.11-18.32,34.11Z"/>
    <path class="cls-3" d="m563.14,1501.2h-19.89l-34.96-68.95h-.36v68.95h-27.48v-94.75h46.17l26.16,55.21.36.48,26.28-55.69h46.05v94.75h-27.36v-68.95h-.48l-34.48,68.95Z"/>
    <path class="cls-3" d="m771.2,1479.14v22.06h-103.91v-94.75h103.91v21.94h-74.38v15.91h69.8v19.17h-69.8v15.67h74.38Z"/>
    <path class="cls-3" d="m923.69,1472.15c0,10.21-2.27,17.6-6.81,22.18-4.54,4.58-11.83,6.87-21.88,6.87h-85.59v-20.49h73.05c1.69,0,3.23-.08,4.64-.24,1.4-.16,2.71-.5,3.92-1.02,1.21-.52,2.17-1.3,2.89-2.35.72-1.04,1.08-2.41,1.08-4.1,0-1.93-.5-3.48-1.51-4.64-1.01-1.16-2.31-2.01-3.92-2.53-1.61-.52-3.27-.84-5-.96-1.73-.12-3.84-.18-6.33-.18-1.53-.08-5.83-.24-12.9-.48-11.09-.4-18.04-.66-20.85-.78-2.81-.12-5.47-.24-7.96-.36-2.49-.12-4.62-.26-6.39-.42-8.92-.48-15.31-3.42-19.17-8.8-2.73-4.02-4.1-10.01-4.1-17.96,0-9.8,1.89-17.16,5.67-22.06,3.78-4.9,10.04-7.35,18.8-7.35h88.84v20.49h-73.05c-1.61,0-3.05.08-4.34.24-1.29.16-2.49.5-3.62,1.02-1.13.52-2.03,1.31-2.71,2.35-.68,1.05-1.02,2.41-1.02,4.1,0,3.05,1.08,5.06,3.25,6.03,2.17.96,5.18,1.45,9.04,1.45h4.94c1.45.08,5.67.24,12.66.48,9.64.32,16.33.56,20.07.72,3.74.16,6.89.3,9.46.42s4.7.26,6.39.42c8.84.48,15.03,3.7,18.56,9.64,2.57,4.9,3.86,11.01,3.86,18.32Z"/>
  </g>
  <g>
    <path class="cls-2" d="m66.68,1310.08l-11.5-26.18,59.24-.13v88.59h-57.92c-9.79,0-18.14-1.94-25.06-5.82-6.92-3.88-12.23-9.08-15.93-15.6s-5.55-13.75-5.55-21.69v-103.27c0-7.94,1.85-15.16,5.55-21.69,3.7-6.52,9.01-11.72,15.93-15.6,6.92-3.88,15.27-5.82,25.06-5.82h57.92l-4.63,73.78-30.94-2.25v-38.74h-2.64c-6.17,0-11.2.26-15.07.79-3.88.53-6.72,1.57-8.53,3.11-1.81,1.54-2.89,3.77-3.24,6.68-.35,2.91-.53,6.74-.53,11.5v75.24c.09,11.37,2.12,18.82,6.08,22.35,3.88,3.35,10.53,5.03,19.97,5.03h.79v-30.68l-8.99.4Z"/>
    <path class="cls-2" d="m199.18,1372.76l-13.09-49.85c-4.58,3.35-8.95,6.44-13.09,9.26v40.2h-38.88v-189.49h56.33c9.87,0,18.27,1.94,25.19,5.82,6.92,3.88,12.23,9.08,15.93,15.6,3.7,6.52,5.55,13.75,5.55,21.69v56.2c-5.2,4.94-11.06,10.05-17.59,15.34l19.83,75.24h-40.2Zm-26.18-157.88v74.71c9.52-5.91,18.91-13.4,28.16-22.48v-20.36c0-7.76-.16-13.8-.46-18.12-.31-4.32-1.32-7.47-3.04-9.45-1.72-1.98-4.52-3.24-8.4-3.77-3.26-.35-7.58-.53-12.96-.53h-3.31Z"/>
    <path class="cls-2" d="m327.44,1209.32l-19.57-.79v136.2l19.57.4v27.24h-72.33l-11.5-24.59,25.39-1.85v-137.39l-13.88.66-11.5-26.18,83.83-.13v26.45Z"/>
    <path class="cls-2" d="m463.37,1182.88h47.34v189.49h-38.88v-149.68l-25.12,27.64v122.05h-38.88v-122.05l-25.12-27.64v149.68h-38.74v-189.49h47.21l36.1,35.57,36.1-35.57Z"/>
    <path class="cls-2" d="m658.41,1182.88h38.88v152.33l-39.8,40.33-24.2-23.8v16.4l-38.88,7.67v-24.07l-24.2,23.8-39.8-40.33v-152.33h38.88v145.45l25.12-27.64v-90.84l-11.77-26.97h50.64v117.82l25.12,27.64v-145.45Z"/>
    <path class="cls-2" d="m819.2,1211.31c.35,1.24.68,2.98.99,5.22.31,2.25.46,4.08.46,5.49v110.41c0,7.94-1.85,15.14-5.55,21.62-3.7,6.48-9.01,11.66-15.93,15.54-6.92,3.88-15.32,5.82-25.19,5.82h-13.09c-9.78,0-18.16-1.94-25.12-5.82-6.96-3.88-12.28-9.06-15.93-15.54-3.66-6.48-5.49-13.69-5.49-21.62v-109.62c0-7.93,1.83-15.14,5.49-21.62,3.66-6.48,8.97-11.66,15.93-15.54,6.96-3.88,15.34-5.82,25.12-5.82h13.09c12.25,0,22.26,2.93,30.02,8.79,7.76,5.86,12.83,13.42,15.21,22.68Zm-37.42,32.4c0-8.29-.22-14.72-.66-19.31-.44-4.58-1.65-7.78-3.64-9.59-1.98-1.81-5.31-2.71-9.98-2.71s-8.02.91-10.05,2.71c-2.03,1.81-3.26,5-3.7,9.59-.44,4.59-.66,11.02-.66,19.31v67.83c0,8.29.22,14.72.66,19.31.44,4.59,1.65,7.78,3.64,9.59,1.98,1.81,5.36,2.71,10.12,2.71s8.13-.9,10.11-2.71c1.98-1.81,3.17-5,3.57-9.59.4-4.58.59-11.02.59-19.31v-67.83Z"/>
    <path class="cls-2" d="m941.65,1211.31c.35,1.24.68,2.98.99,5.22.31,2.25.46,4.08.46,5.49v110.41c0,7.94-1.85,15.14-5.55,21.62-3.7,6.48-9.01,11.66-15.93,15.54-6.92,3.88-15.32,5.82-25.19,5.82h-13.09c-9.78,0-18.16-1.94-25.12-5.82-6.96-3.88-12.28-9.06-15.93-15.54-3.65-6.48-5.49-13.69-5.49-21.62v-109.62c0-7.93,1.83-15.14,5.49-21.62,3.66-6.48,8.97-11.66,15.93-15.54,6.96-3.88,15.34-5.82,25.12-5.82h13.09c12.25,0,22.26,2.93,30.02,8.79,7.76,5.86,12.83,13.42,15.21,22.68Zm-37.42,32.4c0-8.29-.22-14.72-.66-19.31-.44-4.58-1.65-7.78-3.64-9.59s-5.31-2.71-9.98-2.71-8.02.91-10.05,2.71c-2.03,1.81-3.26,5-3.7,9.59-.44,4.59-.66,11.02-.66,19.31v67.83c0,8.29.22,14.72.66,19.31.44,4.59,1.65,7.78,3.64,9.59,1.98,1.81,5.36,2.71,10.12,2.71s8.13-.9,10.12-2.71c1.98-1.81,3.17-5,3.57-9.59.4-4.58.59-11.02.59-19.31v-67.83Z"/>
    <path class="cls-2" d="m1070.05,1225.98v103.27c0,7.93-1.85,15.16-5.55,21.69-3.7,6.52-9.04,11.72-16,15.6-6.97,3.88-15.34,5.82-25.13,5.82h-61.62v-189.49h61.62c9.79,0,18.16,1.94,25.13,5.82,6.96,3.88,12.3,9.08,16,15.6,3.7,6.52,5.55,13.75,5.55,21.69Zm-69.42,114.38c2.47.09,4.71.13,6.74.13,9.17,0,15.29-.92,18.38-2.78,3.61-2.12,5.42-7.89,5.42-17.32v-85.55c0-9.43-1.81-15.21-5.42-17.32-3.09-1.85-9.21-2.78-18.38-2.78-2.03,0-4.28.05-6.74.13v125.49Z"/>
  </g>
  <polygon class="cls-1" points="544.58 174.73 921.91 470.13 921.91 845.3 544.58 1136.38 184.5 847.46 184.5 474.44 544.58 174.73"/>
  <g>
    <path class="cls-3" d="m544.58,174.73L184.5,474.44v373.02l177.69,142.57c-.02-.26-.04-.5-.04-.73-.99-37.95.5-100.26-.8-143.1-37.32-31.82-113.93-99.4-150.18-129.46-.5-40.88-.28-94.66.73-123.61.58-.38,75.01-48.44,85.61-55.32l-72.05-56.88,327.74-260.9,332.05,263.05-55.95,43.24c2.25,2.41,55.96,66.41,56.58,66.81,1.01,28.96,1.23,82.73.73,123.61-36.57,30.34-113.16,84.74-149.96,114.47-1.66,43.58.02,117.83-1.01,157.79l186.27-143.69v-375.17l-377.33-295.39Z"/>
    <path class="cls-3" d="m760.65,639.92c4.74-15.42,5.28-32.14,10.71-47.35-57.67,54.86-115.33,109.72-173,164.59,43.93-20.02,97.02-25.08,137.88-50.11,15.92-9.75,17.25-43.83,24.41-67.13Z"/>
    <circle class="cls-2" cx="371.29" cy="484.14" r="44.59" transform="translate(-101.3 98.26) rotate(-13.28)"/>
    <circle class="cls-2" cx="728.66" cy="484.14" r="44.59" transform="translate(-91.74 180.36) rotate(-13.28)"/>
    <circle class="cls-2" cx="545.66" cy="346.53" r="44.59" transform="translate(-48.46 91.88) rotate(-9.22)"/>
    <circle class="cls-2" cx="545.66" cy="488.46" r="44.59"/>
    <circle class="cls-2" cx="545.66" cy="630.38" r="44.59"/>
    <path class="cls-3" d="m342.48,662.74c2.85,39.39,24.43,57.42,61.11,64.99,33.42,6.88,65.44,20.44,98.58,28.68l-175.27-166.82c3.28,24.52,13.8,48.51,15.59,73.16Z"/>
    <polygon class="cls-3" points="421.68 806.49 421.68 1037.76 486.37 1089.68 486.37 832.36 421.68 806.49"/>
    <polygon class="cls-3" points="600.64 832.36 600.64 1093.13 665.33 1043.23 665.33 808.64 600.64 832.36"/>
    <polygon class="cls-3" points="512.24 823.74 512.24 1110.42 544.58 1136.38 576.92 1111.43 576.92 823.74 512.24 823.74"/>
  </g>
</svg>